<?xml version="1.0" standalone="no"?>
<!DOCTYPE svg PUBLIC "-//W3C//DTD SVG 20010904//EN"
 "http://www.w3.org/TR/2001/REC-SVG-20010904/DTD/svg10.dtd">
<svg version="1.0" xmlns="http://www.w3.org/2000/svg"
 width="1084.000000pt" height="1084.000000pt" viewBox="0 0 1084.000000 1084.000000"
 preserveAspectRatio="xMidYMid meet">
<metadata>
Created by potrace 1.14, written by Peter Selinger 2001-2017
</metadata>
<g transform="translate(0.000000,1084.000000) scale(0.100000,-0.100000)"
fill="#000000" stroke="none">
<path d="M699 9413 c0 -10 -1 -321 -2 -691 l-2 -672 30 0 c223 -4 8135 -4
8136 0 1 3 2 314 3 693 l1 687 -4082 0 c-3882 0 -4083 -1 -4084 -17z"/>
<path d="M2670 6530 c0 -379 3 -690 8 -691 4 0 1840 -1 4079 -2 2708 -1 4074
1 4076 8 2 6 3 316 3 690 l-1 680 -4082 3 -4083 2 0 -690z"/>
<path d="M0 4320 l0 -690 28 -1 c35 0 3943 0 4000 1 l42 0 0 690 0 690 -2035
0 -2035 0 0 -690z"/>
<path d="M1365 2116 c0 -376 3 -688 7 -692 5 -5 8623 -10 8739 -5 16 1 17 57
17 691 l0 690 -4382 0 -4381 0 0 -684z"/>
</g>
</svg>
