<?xml version="1.0" encoding="UTF-8"?>
<svg width="120px" height="30px" viewBox="0 0 120 30" version="1.1" xmlns="http://www.w3.org/2000/svg" xmlns:xlink="http://www.w3.org/1999/xlink">
    <!-- Generator: sketchtool 60.1 (101010) - https://sketch.com -->
    <title>B0F9F610-3F9D-4E02-9DC0-37F1773CFD25@3x</title>
    <desc>Created with sketchtool.</desc>
    <g id="Asset-Artboard-Page" stroke="none" stroke-width="1" fill="none" fill-rule="evenodd">
        <g id="basics-/-logo-/-Rexroth_no_claim" transform="translate(0.266667, 0.000000)" fill-rule="nonzero">
            <g id="Rexroth-Logo_RGB">
                <g id="rexroth" transform="translate(-0.000000, 0.000000)">
                    <g id="r" transform="translate(0.000000, 7.949278)">
                        <polygon id="Shape" fill="#00CCFF" points="5.53799812 19.5320871 5.53799812 14.3951927 2.78247308 12.8455581 0 13.1720718 0 19.5320871"></polygon>
                        <path d="M5.5380499,9.93162939 C5.5380499,7.01420058 7.09464971,5.19016882 9.51992244,5.19016882 C10.4253294,5.19016882 11.0038296,5.37074793 11.8007149,5.84416301 L13.1762533,0.809821392 C12.3075815,0.263122278 11.4747519,0.0434244124 10.4253353,0.0434244124 C8.28981398,0.0434244124 6.76900328,1.17428984 5.5380499,3.69148794 L5.5380499,0.445301925 L0,0.445301925 L0,13.1721168 C0.99573232,13.4231123 2.89824843,13.8761405 5.5380499,14.3952164 L5.5380499,9.93162939 Z" id="Shape" fill="#002B49"></path>
                    </g>
                    <g id="e" transform="translate(12.826795, 7.830632)">
                        <path d="M9.89820345,20.0509946 C12.8348817,20.0509946 15.1778052,19.1313154 16.8935596,17.3566736 L9.469905,16.3464034 L1.73850965,16.005676 C3.372761,18.4581041 6.16612156,20.0509946 9.89820345,20.0509946 Z" id="Shape" fill="#00CCFF"></path>
                        <path d="M16.8935596,17.3566736 C17.3701914,16.8672893 17.791822,16.3263847 18.1508009,15.7437746 L13.8441751,13.591096 C12.8306535,15.2345973 11.7799166,15.8545294 9.97088666,15.8545294 C5.73932937,15.8545294 5.68585576,11.6717429 5.66210148,11.5115448 L18.5131355,11.5115448 L18.5131355,10.0145095 C18.5131355,3.81013032 15.1828206,0.0871300156 9.64482247,0.0871300156 C4.03371515,0.0871300156 0.0881600912,4.28524559 0.0881600912,10.2700301 C0.0881600912,12.4209516 0.666183717,14.3965607 1.73851083,16.0056808 C6.10995549,16.5990018 11.2424916,17.1136606 16.8935596,17.3566736 Z M9.60892745,4.21200902 C11.81624,4.21200902 12.8306582,5.38039622 13.1195118,8.11559199 L5.77148226,8.11559199 C6.27866433,5.41616441 7.43661324,4.21200902 9.60892745,4.21200902 L9.60892745,4.21200902 Z" id="Shape" fill="#002B49"></path>
                    </g>
                    <g id="x" transform="translate(30.831379, 8.305215)">
                        <polygon id="Shape" fill="#A3BAC8" points="13.4910817 19.1761493 19.9704959 19.1761493 17.9759882 16.1918481 14.6951529 15.6550939 12.013176 16.7923152"></polygon>
                        <polygon id="Shape" fill="#5A7C91" points="5.7807658 19.1761493 7.16088187 17.0116915 4.44430792 16.3578338 1.54910026 16.9751486 0.0610743721 19.1761493"></polygon>
                        <path d="M7.16089481,17.0116322 L9.68999632,13.0449818 L12.013176,16.7923045 C13.9986226,16.6492424 15.9875007,16.4444963 17.9760082,16.1917983 L13.1651599,8.99328123 L19.3193513,0.0893641186 L13.5992363,0.0893641186 L10.2335006,5.52569715 L6.86697292,0.0893641186 L0.495302566,0.0893641186 L6.64948814,9.43092812 L1.54915321,16.975177 C2.90933008,17.0111015 4.29428227,17.0300128 5.70400979,17.0319112 C6.1888697,17.0319112 6.67503818,17.020361 7.16089481,17.0116322 Z" id="Shape" fill="#002B49"></path>
                    </g>
                    <g id="r-2" transform="translate(52.601627, 7.949278)">
                        <polygon id="Shape" fill="#A3BAC8" points="5.54658854 19.5320871 5.54658854 15.045847 2.49251691 14.68896 0.0105909316 16.0110317 0.0105909316 19.5320871"></polygon>
                        <path d="M5.54657913,9.93162939 C5.54657913,7.01420058 7.10402386,5.19016882 9.52802921,5.19016882 C10.4316993,5.19016882 11.0110962,5.37074793 11.8083992,5.84416301 L13.1834634,0.809821392 C12.3135231,0.263122278 11.4824891,0.043420853 10.431704,0.043420853 C8.29660512,0.043420853 6.77632279,1.17428628 5.54657795,3.69148438 L5.54657795,0.445301925 L0.0106391791,0.445301925 L0.0106391791,16.0109902 C1.86068546,15.7221526 3.70677192,15.3961135 5.54657795,15.0458055 L5.54657913,9.93162939 Z" id="Shape" fill="#002B49"></path>
                    </g>
                    <g id="o" transform="translate(65.310745, 7.830632)">
                        <path d="M19.4555954,10.013717 C19.4555954,9.74968229 19.4444573,9.48080331 19.4236061,9.2092109 L16.6472969,8.88456359 L13.8091721,10.4769581 C13.7815121,11.7567919 13.4389201,15.4019284 10.1546358,15.6802267 L9.75712283,17.8610576 L10.6176949,20.0116125 C15.8403327,19.6142008 19.4555954,15.6156156 19.4555954,10.013717 Z" id="Shape" fill="#5A7C91"></path>
                        <path d="M9.75667095,15.7072637 C7.28103834,15.7072637 6.33403489,13.9003703 5.96884545,12.3211609 L3.06486379,12.3211609 L0.55711595,13.5619304 C2.16307186,19.030566 7.60431005,20.0509946 9.75667095,20.0509946 C10.049216,20.0509946 10.3343251,20.0331657 10.617689,20.0116042 L10.1546299,15.6802207 C10.0237283,15.6912975 9.89708552,15.7072637 9.75667095,15.7072637 Z" id="Shape" fill="#00CCFF"></path>
                        <path d="M5.737636,10.0886478 C5.737636,6.3647968 7.14980846,4.43091433 9.86477964,4.43091433 C12.3985824,4.43091433 13.810756,6.43626793 13.810756,10.0502753 C13.810756,10.1006761 13.8139239,10.2577349 13.8091721,10.4769581 C15.7087866,10.0346287 17.5802647,9.6120443 19.4236061,9.20920497 C19.1014959,5.00933343 16.2577237,0.0871300156 9.90157254,0.0871300156 C4.10924497,0.0871300156 0.0906324853,4.24953317 0.0906324853,10.1976478 C0.0831595094,11.3359715 0.24030616,12.4693145 0.55711595,13.5619304 C2.37527843,13.1572284 4.17918866,12.7436385 5.96884663,12.3211609 C5.80749874,11.5883292 5.72992311,10.8392778 5.737636,10.0886478 L5.737636,10.0886478 Z" id="Shape" fill="#002B49"></path>
                    </g>
                    <g id="t" transform="translate(85.315838, 2.610211)">
                        <path d="M8.56295763,25.2714158 C10.3721465,25.2714158 11.784266,24.7962483 13.0883309,23.7760843 L11.7471083,20.0530318 C11.0596038,20.4550184 10.4818956,20.6371981 9.8298637,20.6371981 C8.74365422,20.6371981 8.2369464,19.9797976 8.2369464,18.5577537 L8.2369464,12.7468447 L5.42080946,12.3125187 L2.69804688,13.7460927 L2.69804688,19.25092 C2.69804688,23.0828657 4.83483557,25.2714158 8.56295763,25.2714158 Z" id="Shape" fill="#5A7C91"></path>
                        <path d="M8.23694169,10.1256523 L12.2183388,10.1256523 L12.2183388,5.78436902 L8.23694169,5.78436902 L8.23694169,0.0176889225 L2.69804688,1.95071952 L2.69804688,5.78436902 L0.093296693,5.78436902 L0.093296693,10.1256523 L2.69804688,10.1256523 L2.69804688,13.7460927 C4.58335037,13.3687986 6.43192334,13.0307858 8.23694169,12.7468459 L8.23694169,10.1256523 Z" id="Shape" fill="#002B49"></path>
                    </g>
                    <g id="h" transform="translate(100.260819, 0.000000)">
                        <path d="M11.8789407,15.8746957 L11.8789407,27.4813957 L17.4161986,27.4813957 L17.4161986,16.0144036 L14.6216507,14.417631 L11.8271027,15.0212778 C11.8611346,15.3044639 11.8784444,15.5894389 11.8789407,15.8746957 Z" id="Shape" fill="#DF0024"></path>
                        <path d="M5.57906034,27.4813957 L5.57906034,16.2408643 C5.56871153,15.6379028 5.65686603,15.0373351 5.83998912,14.4632421 L2.83914045,13.6844739 L0.0419071395,14.5604262 L0.0419071395,27.4813957 L5.57906034,27.4813957 Z" id="Shape" fill="#00CCFF"></path>
                        <path d="M5.83998912,14.4632421 C6.56782147,12.3032727 8.60563438,12.2623979 9.05464634,12.2623979 C9.20239925,12.2623979 11.4704696,11.9525375 11.8271027,15.0212778 C13.724394,15.2880271 15.5931274,15.6275846 17.4161986,16.0144036 C17.4161986,11.3655498 16.0399211,7.91776769 11.4448678,7.91776769 C8.7657928,7.91776769 6.84601465,9.05198605 5.57906034,11.3852485 L5.57906034,0 L0.0419071395,0 L0.0419071395,14.5604262 C1.32010549,14.4695232 2.57159351,14.417631 3.78935059,14.417631 C4.47310701,14.417631 5.15681284,14.4354611 5.83998912,14.4632421 Z" id="Shape" fill="#002B49"></path>
                    </g>
                </g>
            </g>
        </g>
    </g>
</svg>