<?xml version="1.0" encoding="UTF-8"?>
<svg width="100px" height="93px" viewBox="0 0 100 93" version="1.1" xmlns="http://www.w3.org/2000/svg" xmlns:xlink="http://www.w3.org/1999/xlink">
    <title>9A1E9A53-36BC-412A-BB6A-9A25D7DC15BD@2x</title>
    <g id="Teaser_Podcast_BRX.com" stroke="none" stroke-width="1" fill="none" fill-rule="evenodd">
        <g id="D_Teaser-podcast" transform="translate(-910.000000, -245.000000)">
            <g id="Podcast_teaser-02" transform="translate(910.000000, 245.000000)">
                <g id="Group" fill-rule="nonzero">
                    <path d="M91.9393939,40.3787879 C90.7575758,35.8787879 88.8181818,31.6515152 86.1818182,27.8333333 L89.9848485,25.2121212 C92.9242424,29.4848485 95.0909091,34.1818182 96.4090909,39.2121212 L91.9393939,40.3787879 Z" id="Path" fill="#9FD8EC"></path>
                    <path d="M86.8636364,24.3484848 C78.5909091,13.7424242 65.6666667,7.54545455 52.2727273,7.78787879 L52.1818182,3.16666667 C59.5757576,3.03030303 67.0151515,4.66666667 73.6818182,7.89393939 C80.2272727,11.0606061 86.0454545,15.7727273 90.5151515,21.5 L89.8484848,24.4242424 L86.8636364,24.3484848 Z" id="Path" fill="#3EC0F0"></path>
                    <path d="M95.1212121,42.5909091 C93.8333333,35.8636364 91.0606061,29.7272727 86.8636364,24.3484848 L90.5151515,21.5 C95.0909091,27.3787879 98.2575758,34.3787879 99.6666667,41.7272727 L95.1212121,42.5909091 Z" id="Path" fill="#5B7C91"></path>
                    <path d="M88.3333333,26.3484848 C91.1515152,30.4242424 93.2121212,34.9090909 94.469697,39.7121212 L96.4242424,39.1969697 C95.1060606,34.1666667 92.9393939,29.469697 90,25.1969697 L88.3333333,26.3484848 Z" id="Path" fill="#A8DAEE" opacity="0.5"></path>
                    <path d="M13.530303,33.8787879 L9.27272727,32.0606061 C12.3484848,24.8484848 17.1969697,18.4545455 23.3030303,13.5606061 C29.6060606,8.51515152 37.1666667,5.13636364 45.1818182,3.8030303 C46.1666667,3.63636364 47.1515152,3.5 48.1363636,3.40909091 L48.6060606,8.01515152 C47.7121212,8.10606061 46.8181818,8.22727273 45.9393939,8.37878788 C31.4393939,10.7878788 19.3181818,20.3333333 13.530303,33.8787879 Z" id="Path" fill="#3EC0F0"></path>
                    <path d="M24.0757576,90.5454545 C13.5454545,82.8939394 6.56060606,71.6212121 4.42424242,58.7727273 C3.04545455,50.530303 3.8030303,42.0454545 6.57575758,34.2272727 L13.5454545,36.7121212 C11.1818182,43.3484848 10.5454545,50.5606061 11.7121212,57.5606061 C13.530303,68.469697 19.4545455,78.0606061 28.4090909,84.5606061 L24.0757576,90.5454545 Z" id="Path" fill="#9FD8EC"></path>
                    <path d="M4.81818182,72.6666667 C2.89393939,68.4545455 1.53030303,63.9848485 0.772727273,59.3636364 C0.272727273,56.3333333 0.0303030303,53.2575758 0.0454545455,50.2121212 L7.45454545,50.2727273 C7.43939394,52.8939394 7.65151515,55.5454545 8.07575758,58.1515152 C8.74242424,62.1212121 9.90909091,65.969697 11.5606061,69.5909091 L4.81818182,72.6666667 Z" id="Path" fill="#5B7C91" opacity="0.5"></path>
                    <path d="M38.2727273,7.06060606 L36.8030303,2.66666667 C39.3484848,1.8030303 42,1.15151515 44.6818182,0.696969697 C46.530303,0.393939394 48.3939394,0.181818182 50.2575758,0.0757575758 L50.5151515,4.6969697 C48.8333333,4.78787879 47.1212121,4.98484848 45.4545455,5.25757576 C43.0151515,5.68181818 40.5909091,6.28787879 38.2727273,7.06060606 Z" id="Path" fill="#5B7C91" opacity="0.8"></path>
                    <path d="M96.030303,55.4242424 L98.9393939,55.9242424 C99.7727273,51.8030303 99.8030303,47.5757576 99.0454545,43.4848485 L99.0454545,43.4848485 L96.1363636,44.0151515 C96.8484848,47.8030303 96.8030303,51.6363636 96.030303,55.4242424 Z" id="Path" fill="#DF0926"></path>
                    <path d="M95.2878788,57.8939394 C93.2121212,70.0757576 86.030303,80.469697 76.030303,86.8484848 L78.2727273,90.9090909 C89.4848485,83.8636364 97.530303,72.2727273 99.8484848,58.6666667 L95.2878788,57.8939394 Z" id="Path" fill="#3EC0F0"></path>
                </g>
                <g id="Group" transform="translate(32.727273, 23.939394)" stroke="#002B49" stroke-width="3.1070303">
                    <path d="M31.9393939,37.3181818 C31.9393939,44.1666667 26.3939394,49.7121212 19.5454545,49.7121212 C12.6969697,49.7121212 7.15151515,44.1666667 7.15151515,37.3181818 L7.15151515,12.530303 C7.15151515,5.68181818 12.6969697,0.136363636 19.5454545,0.136363636 C26.3939394,0.136363636 31.9393939,5.68181818 31.9393939,12.530303 L31.9393939,37.3181818 Z" id="Path"></path>
                    <path d="M0.0757575758,24.9242424 L0.0757575758,37.3181818 C0.0757575758,48.0757576 8.78787879,56.7878788 19.5454545,56.7878788 C30.3030303,56.7878788 39.0151515,48.0757576 39.0151515,37.3181818 L39.0151515,24.9242424" id="Path"></path>
                    <line x1="19.5848485" y1="58.5606061" x2="19.5848485" y2="66.530303" id="Path"></line>
                    <line x1="7.16666667" y1="67.4333333" x2="31.9393939" y2="67.4333333" id="Path"></line>
                </g>
            </g>
        </g>
    </g>
</svg>