<svg width="813" height="184" xmlns="http://www.w3.org/2000/svg">
  <g fill="none" fill-rule="evenodd">
    <path d="M188.4324 72.5882a643.969 643.969 0 01-19.7053-.3028l.451-15.3905c-17.4982-.5321-34.2563-1.7846-50.0808-3.522l.3472-3.301c22.9636 2.5094 46.114 3.7776 68.9607 3.7776a606.74 606.74 0 0010.3267-.087c79.7473-1.3394 137.8309-13.8066 195.1824-27.572 4.9983-1.1985 9.973-2.4023 14.9322-3.6023l4.2508 18.2312c-4.9725 1.203-9.9582 2.4098-14.9668 3.6106-9.6433 2.3146-19.308 4.5932-29.0918 6.7909l-2.0658-9.5388c-41.847 9.4068-93.7943 19.2461-161.7883 20.9071l.2303 9.7786c-2.1107.0517-4.239.0952-6.3799.1312a631.5823 631.5823 0 01-10.6026.0892l503.6649-15.6933" fill="#00243E"/>
    <path d="M681.7428 35.5882c-27.8227-8.2967-56.3028-13.715-84.6455-16.1033l1.5762-17.8967c29.6215 2.4961 59.3744 8.1551 88.4238 16.8175l-5.3545 17.1825" fill="#DF0024"/>
    <path d="M438.8161 47.5882l-6.7188-27.786c41.349-9.1404 77.199-15.7361 117.7606-18.2173 8.114-.499 16.3147-.8156 24.3669-.9382 2.6279-.0414 5.2781-.055 7.8725-.0585l-.0306 28.519h-.1365c-2.3609 0-4.8053.0164-7.2222.0549-7.581.1155-15.2968.4128-22.9396.8833-38.5459 2.3579-73.0306 8.7176-112.9523 17.5428" fill="#32BCE1"/>
    <path d="M205.309 81.5882l-.2117-8.6276c65.2084-1.525 116.0804-10.0125 164.0972-20.3724l1.9028 8.439c-42.8322 9.248-96.0239 18.9233-165.7883 20.561" fill="#8ED0DB"/>
    <path d="M94.4865 89.5882l-.3892-15.6148c114.9457-2.6523 202.764-18.364 273.5077-33.3852l3.4923 18c-80.9395 17.172-166.692 28.4721-276.6108 31L723.5973-36.0231" fill="#33B6DD"/>
    <path d="M468.2374 102.5882l-4.1401-21.9879c12.1498-2.5053 22.7567-4.484 32.9584-6.1607 11.6022-1.9073 22.0877-3.3856 32.0554-4.5195l-.8858-8.2856a546.795 546.795 0 019.8224-1.0463l.5945 6.7035c4.9835-.4705 9.9967-.8656 14.911-1.1746 9.2203-.5874 18.2337-.881 27.1062-.881 7.5724 0 15.039.2144 22.4379.6442L601.932 89.57c-6.2984-.3298-12.6825-.495-19.1754-.495-17.4172 0-35.633 1.1892-55.1892 3.5923-18.1212 2.201-35.6688 5.3728-48.9347 7.8905-3.3176.6296-6.8162 1.313-10.3953 2.0303" fill="#577380"/>
    <path d="M510.4505 114.5882l-3.3532-19.9496 34.6771-11.0504 36.3229 5.7058-.0843 20.0157c-20.9908-.087-42.4446 1.5994-67.5625 5.2785" fill="#D22435"/>
    <path d="M510.3969 89.5882c5.6091-.6313 11.3953-1.2283 17.2395-1.752 19.619-1.7794 37.92-2.674 55.4265-2.71l.0344-6.5356c-23.1402-.0704-46.6458 1.42-74 4.6893l1.2996 6.3083" fill="#122335"/>
    <path d="M168.6436 71.5882a698.2632 698.2632 0 01-51.5463-3.4093l1.6236-14.5907c15.9179 1.6536 32.7749 2.8457 50.3764 3.3522l-.4537 14.6478" fill="#00243E"/>
    <path d="M760.3424 129.5882c-47.751-24.5165-93.953-38.7717-141.2451-43.58l1.8878-18.0583c2.3235.2482 4.6418.517 6.9586.8078 2.459.3077 4.939.6432 7.372.9972l1.6696-11.1667c45.922 6.467 90.9323 21.2349 137.112 44.9473l-13.7549 26.0527" fill="#8ED0DB"/>
    <path d="M801.9617 183.5882c-60.2681-38.7808-113.2956-60.7917-166.8644-69.2704l2.9493-17.7296c56.2324 8.899 111.5359 31.78 174.0507 72.007l-10.1356 14.993" fill="#93ACB4"/>
    <path d="M621.8718 68.5882a376.3465 376.3465 0 00-19.253-1.5689l.3365-6.5816c-6.641-.3337-13.3584-.5009-20.1862-.5009-13.9972 0-28.4486.7041-43.6042 2.1216l-2.0676-22.4221c5.1526-.467 10.338-.8598 15.4121-1.1668 9.596-.5866 18.9885-.8813 28.2393-.8813 17.5656 0 34.6187 1.0615 51.5767 3.196 2.5923.3272 5.2072.6825 7.7719 1.058l-2.6112 17.5585a376.8929 376.8929 0 00-14.4754-1.7642l-1.1389 10.9517" fill="#C2D1D2"/>
    <path d="M540.67 66.5882l-.5727-4.4856c14.9678-1.0118 29.2401-1.5144 43.0639-1.5144 6.7432 0 13.3773.1193 19.936.3575l-.3323 4.698c-7.1279-.2875-14.3211-.431-21.6163-.431-8.5476 0-17.2308.1965-26.1136.5895a661.993 661.993 0 00-14.365.786" fill="#738F9A"/>
    <path d="M633.4276 69.5882a437.3216 437.3216 0 00-7.3718-.8461 445.0354 445.0354 0 00-6.9585-.6854l1.167-9.4685c4.956.428 9.9008.9358 14.833 1.5252l-1.6697 9.4748" fill="#8ACDD0"/>
    <path d="M185.3825 109.5882c-18.0436 0-36.2923-.7085-54.2852-2.109l1.4173-17.891c17.5273 1.3639 35.2986 2.0538 52.878 2.0538.8336 0 1.6672-.0015 2.5001-.005 15.997-.0604 31.8658-.5327 47.1653-1.4056l1.0393 17.9168c-15.6211.8908-31.8165 1.3732-48.1358 1.435-.859.0036-1.7193.005-2.579.005" fill="#98D1DA"/>
    <path d="M60.2557 109.5882c-7.1167-1.3675-14.2616-2.8775-21.2353-4.4886C25.947 102.1062 12.8438 98.6483.0973 94.8278l7.3982-30.2396c12.1989 3.656 24.7423 6.9666 37.2836 9.8386 6.6857 1.5445 13.5143 2.9872 20.3182 4.2952l-4.8416 30.8662" fill="#32BCE1"/>
    <path d="M442.8375 79.5882l-3.7402-17.0866c20.8226-4.3436 36.9-7.333 52.1233-9.6928 11.473-1.7777 21.862-3.1585 31.7626-4.2206l1.114 9.8332a595.0191 595.0191 0 00-4.0125.4507c-18.271 2.0929-35.7837 5.0753-49 7.44a1070.37 1070.37 0 00-10.305 1.8978l1.4883 7.4511c-6.0324 1.1733-12.4585 2.4723-19.4305 3.9272" fill="#8ED0DB"/>
    <path d="M466.6048 80.5882l-1.5075-7.7798c3.5906-.6996 7.102-1.3665 10.438-1.9816 13.387-2.469 31.1256-5.5829 49.6325-7.768a585.3912 585.3912 0 014.0644-.4706l.865 7.8636c-9.7344 1.0762-19.9745 2.4792-31.3052 4.2894-9.963 1.5912-20.3216 3.4692-32.1872 5.847" fill="#3B6F81"/>
    <path d="M441.086 60.5882a62.878 62.878 0 00-.3189.07c-27.3255 6.3594-55.1518 13.4285-85.6698 19.6509l5.2277 27.9284 21.9903 4.3507 19.5583-13.088c6.2616-1.3877 12.438-2.776 18.5489-4.1503 9.1915-2.0663 17.8736-4.0176 26.6748-5.932l-6.0113-28.8297" fill="#32BCE1"/>
    <path d="M275.025 108.5882l-2.9277-29.6195c8.8475-.9304 17.763-2.0305 26.4986-3.2698 42.2634-5.997 78.4467-14.637 113.438-22.9928 4.389-1.048 8.7508-2.0893 13.093-3.118l2.9704 13.336c-23.6734 5.6725-47.9421 11.7127-74.2055 17.1202l2.906 15.6776c-17.0939 3.5005-35.0228 6.7413-54.268 9.4722-9.0692 1.287-18.323 2.4287-27.5048 3.394" fill="#DF0024"/>
    <path d="M357.0521 95.5882l-2.9548-14.8183c26.7036-5.111 51.3791-10.8202 75.4493-16.1817l3.5507 14.821c-4.3982.9688-8.8169 1.9495-13.2627 2.9366-20.218 4.4878-40.8211 9.0614-62.7825 13.2424" fill="#1B8DB4"/>
    <path d="M192.1053 145.5882l-.008-18.7653c16.8533-.0075 33.3384-.551 48.9967-1.6154 63.8861-4.3453 115.6264-14.9867 159.1087-24.6193l3.8946 18.3382c-44.1225 9.7752-96.6492 20.5743-161.7826 25.0044-16.061 1.0922-32.9533 1.6499-50.2094 1.6574" fill="#577380"/>
  </g>
</svg>
